<svg id="Layer_1" data-name="Layer 1" xmlns="http://www.w3.org/2000/svg" viewBox="0 0 879.12 116.24"><defs><style>.cls-1{fill:#5481db;}.cls-2{fill:#fff;}.cls-3{fill:#414549;}</style></defs><title>logo-dark</title><circle class="cls-1" cx="50" cy="50" r="50"/><path class="cls-2" d="M213.64,278.91a1.94,1.94,0,0,0-1.49-1.49,44.35,44.35,0,0,0-10.06-.84c-12.59,0-20.14,6.74-25.78,15.62H163.6a5.86,5.86,0,0,0-5.24,3.23l-6,12.05a2.93,2.93,0,0,0,2.62,4.24h11.6c-.72,1.56-1.45,3.11-2.19,4.6a1.93,1.93,0,0,0,.36,2.25l7.76,7.76a2,2,0,0,0,2.26.37c1.49-.75,3-1.47,4.6-2.19v11.6a2.93,2.93,0,0,0,4.23,2.63l12-6a5.83,5.83,0,0,0,3.23-5.23V314.74c8.86-5.65,15.62-13.22,15.62-25.75a43.81,43.81,0,0,0-.83-10.08ZM200.82,296.1a5.86,5.86,0,1,1,5.85-5.85A5.86,5.86,0,0,1,200.82,296.1Z" transform="translate(-136.14 -255.64)"/><path class="cls-3" d="M260.58,263.8h12.15V334h32.69V345.1H260.58Z" transform="translate(-136.14 -255.64)"/><path class="cls-3" d="M366.66,290v55.1H355.1v-8.26c-3.66,6.26-11.57,9.44-19,9.44-15,0-27.38-11.32-27.38-28.79s12.39-28.67,27.26-28.67c7.79,0,15.46,3.07,19.12,9.32V290ZM355,317.37a17.45,17.45,0,0,0-17.58-17.58c-9.44,0-17.11,7.2-17.11,17.58s7.67,17.94,17.11,17.94S355,328.46,355,317.37Z" transform="translate(-136.14 -255.64)"/><path class="cls-3" d="M417.52,290.82l-2,11a19.5,19.5,0,0,0-8.14-1.89c-10,0-14.75,10.5-14.75,25.37V345.1H380.94V290h11.68v12.39c2.83-9.68,8.38-13.57,15.46-13.57C411.85,288.82,415.75,289.76,417.52,290.82Z" transform="translate(-136.14 -255.64)"/><path class="cls-3" d="M477.46,290v55.1H465.9v-8.26c-3.66,6.26-11.57,9.44-19,9.44-15,0-27.38-11.32-27.38-28.79s12.39-28.67,27.26-28.67c7.79,0,15.46,3.07,19.12,9.32V290Zm-11.68,27.37a17.45,17.45,0,0,0-17.58-17.58c-9.44,0-17.11,7.2-17.11,17.58s7.67,17.94,17.11,17.94S465.78,328.46,465.78,317.37Z" transform="translate(-136.14 -255.64)"/><path class="cls-3" d="M541.53,290l-23,55.1h-11l-23-55.1h12.39L513,330.12,529,290Z" transform="translate(-136.14 -255.64)"/><path class="cls-3" d="M599.47,322.21H555.58c1.53,9,8.14,13.33,17.11,13.33,6.37,0,12.39-2.71,15.45-7.78l9.21,4.6c-4.84,9.2-14.75,13.92-25.25,13.92-15.93,0-28.44-11.44-28.44-28.91s12.74-28.55,28.44-28.55,27.61,11.09,27.61,28.44C599.71,318.79,599.59,320.44,599.47,322.21Zm-11.33-9.32c-1.06-8.61-7.43-13.33-15.93-13.33s-14.86,4.24-16.52,13.33Z" transform="translate(-136.14 -255.64)"/><path class="cls-3" d="M610.21,260.15h11.56v85H610.21Z" transform="translate(-136.14 -255.64)"/><path class="cls-1" d="M642.51,321.5h12c.24,7,6.73,13.69,16.88,13.69,9.67,0,15.34-5.9,15.34-12.62,0-7.2-6.49-10.62-13.1-12.39l-10.39-2.6c-17.34-4.37-20.17-14.63-20.17-21.36,0-14.28,12.62-23.36,27-23.36,14.63,0,26.08,9.2,26.08,23.95h-12c0-7.67-6-12.86-14.4-12.86-7.67,0-14.51,4.6-14.51,12,0,2.59.83,8,11.09,10.62l10.27,2.59c13.69,3.42,22.3,10.86,22.3,22.78,0,13.56-11.09,24.3-27.49,24.3C654.07,346.28,642.51,334.6,642.51,321.5Z" transform="translate(-136.14 -255.64)"/><path class="cls-1" d="M736.91,299.67h-11.8V345.1H713.54V299.67h-9.91V290h9.91V269.35h11.57V290h11.8Z" transform="translate(-136.14 -255.64)"/><path class="cls-1" d="M798.38,290v55.1H786.82v-8.26c-3.66,6.26-11.56,9.44-19,9.44-15,0-27.37-11.32-27.37-28.79s12.39-28.67,27.25-28.67c7.79,0,15.46,3.07,19.12,9.32V290ZM786.7,317.37a17.44,17.44,0,0,0-17.58-17.58c-9.44,0-17.11,7.2-17.11,17.58s7.67,17.94,17.11,17.94S786.7,328.46,786.7,317.37Z" transform="translate(-136.14 -255.64)"/><path class="cls-1" d="M849.24,290.82l-2,11a19.47,19.47,0,0,0-8.14-1.89c-10,0-14.75,10.5-14.75,25.37V345.1H812.66V290h11.68v12.39c2.84-9.68,8.38-13.57,15.46-13.57C843.58,288.82,847.47,289.76,849.24,290.82Z" transform="translate(-136.14 -255.64)"/><path class="cls-1" d="M884.05,299.67h-11.8V345.1H860.69V299.67h-9.92V290h9.92V269.35h11.56V290h11.8Z" transform="translate(-136.14 -255.64)"/><path class="cls-1" d="M942.93,290v55.1H931.37v-8.38c-3.19,6.73-12,9.56-17.82,9.56-13.93,0-22.3-9.08-22.18-24.78V290h11.56v30.68c0,9,5.43,14.16,12.51,14.16s15.93-4,15.93-15.34V290Z" transform="translate(-136.14 -255.64)"/><path class="cls-1" d="M1015.26,317.61c0,17.58-12.39,28.67-27.37,28.67-7.79,0-15.46-3.07-19.12-9.32v34.93H957.21V290h11.56v8.26c3.66-6.26,11.68-9.44,19.12-9.44C1002.75,288.82,1015.26,300,1015.26,317.61Zm-11.68.12c0-10.39-7.55-18.06-17.11-18.06-9.2,0-17.58,7-17.58,18.06a17.45,17.45,0,0,0,17.58,17.58C996,335.31,1003.58,328.11,1003.58,317.73Z" transform="translate(-136.14 -255.64)"/></svg>